<?xml version="1.0" encoding="utf-8"?>
<!-- Generator: Adobe Illustrator 17.0.0, SVG Export Plug-In . SVG Version: 6.00 Build 0)  -->
<!DOCTYPE svg PUBLIC "-//W3C//DTD SVG 1.1//EN" "http://www.w3.org/Graphics/SVG/1.1/DTD/svg11.dtd">
<svg version="1.1" id="Camada_1" xmlns="http://www.w3.org/2000/svg" xmlns:xlink="http://www.w3.org/1999/xlink" x="0px" y="0px"
	 width="512px" height="512px" viewBox="0 0 512 512" enable-background="new 0 0 512 512" xml:space="preserve">
<linearGradient id="SVGID_1_" gradientUnits="userSpaceOnUse" x1="76.0743" y1="60.4753" x2="419.2457" y2="403.6047" gradientTransform="matrix(1 0 0 -1 8.34 488.04)">
	<stop  offset="0" style="stop-color:#FFDD55"/>
	<stop  offset="0.5" style="stop-color:#FF543E"/>
	<stop  offset="1" style="stop-color:#C837AB"/>
</linearGradient>
<circle fill="url(#SVGID_1_)" cx="256" cy="256" r="242.644"/>
<path fill="#FFFFFF" d="M256.004,105.791c-62.74,0-122.318-5.581-145.075,52.822c-9.399,24.121-8.035,55.449-8.035,100.305
	c0,39.361-1.261,76.356,8.035,100.288c22.705,58.437,82.767,52.839,145.04,52.839c60.079,0,122.024,6.255,145.057-52.839
	c9.417-24.363,8.035-55.223,8.035-100.288c0-59.82,3.301-98.438-25.711-127.432c-29.375-29.375-69.099-25.694-127.415-25.694
	L256.004,105.791z M242.284,133.386c130.871-0.207,147.528-14.757,138.336,187.356c-3.266,71.483-57.695,63.639-124.599,63.639
	c-121.989,0-125.497-3.49-125.497-125.532c0-123.459,9.677-125.394,111.761-125.497L242.284,133.386z M337.734,158.803
	c-10.143,0-18.367,8.225-18.367,18.367c0,10.142,8.225,18.367,18.367,18.367s18.367-8.225,18.367-18.367
	C356.101,167.028,347.876,158.803,337.734,158.803z M256.004,180.28c-43.422,0-78.62,35.214-78.62,78.637s35.197,78.62,78.62,78.62
	s78.602-35.197,78.602-78.62S299.427,180.28,256.004,180.28L256.004,180.28z M256.004,207.875c67.475,0,67.561,102.084,0,102.084
	C188.547,309.959,188.444,207.875,256.004,207.875z"/>
</svg>
